<?xml version="1.0" standalone="no"?>
<!DOCTYPE svg PUBLIC "-//W3C//DTD SVG 20010904//EN"
 "http://www.w3.org/TR/2001/REC-SVG-20010904/DTD/svg10.dtd">
<svg version="1.0" xmlns="http://www.w3.org/2000/svg"
 width="1263.000000pt" height="1280.000000pt" viewBox="0 0 1263.000000 1280.000000"
 preserveAspectRatio="xMidYMid meet">

<g transform="translate(0.000000,1280.000000) scale(0.100000,-0.100000)"
fill="#000000" stroke="none">

<path style="fill:#00bebe" d="M0 12630 l0 -170 2976 -3150 c1636 -1733 2974 -3154 2972 -3158 -2
-4 -300 -297 -663 -652 -363 -354 -937 -915 -1275 -1245 -338 -331 -1379
-1347 -2313 -2258 l-1697 -1658 0 -169 0 -170 5984 0 5984 0 16 93 c9 50 61
353 115 672 55 319 145 848 201 1175 56 327 146 856 201 1175 54 319 105 618
114 664 8 46 13 86 11 88 -5 5 -396 83 -416 83 -10 0 -28 -40 -58 -128 -261
-770 -648 -1312 -1140 -1596 -336 -194 -887 -349 -1482 -416 -401 -46 -240
-43 -3673 -49 -1780 -3 -3237 -4 -3237 -1 1 3 1204 1180 2674 2615 1471 1436
2675 2613 2675 2618 1 4 -1056 1130 -2349 2502 -1293 1372 -2350 2497 -2350
2500 0 3 1308 4 2908 2 2099 -3 2940 -7 3027 -15 259 -25 335 -34 478 -58 329
-55 563 -135 784 -269 237 -144 444 -347 601 -588 194 -298 337 -778 392
-1317 5 -58 13 -120 16 -137 l5 -33 214 0 c118 0 215 3 215 8 0 4 -50 525
-110 1157 -61 633 -128 1344 -150 1580 -23 237 -43 440 -46 453 l-4 22 -5800
0 -5800 0 0 -170z"/>
</g>
</svg>
