<?xml version="1.0" encoding="UTF-8" standalone="no"?>
<!-- Created with Inkscape (http://www.inkscape.org/) -->

<svg
   xmlns:dc="http://purl.org/dc/elements/1.1/"
   xmlns:cc="http://creativecommons.org/ns#"
   xmlns:rdf="http://www.w3.org/1999/02/22-rdf-syntax-ns#"
   xmlns:svg="http://www.w3.org/2000/svg"
   xmlns="http://www.w3.org/2000/svg"
   xmlns:sodipodi="http://sodipodi.sourceforge.net/DTD/sodipodi-0.dtd"
   xmlns:inkscape="http://www.inkscape.org/namespaces/inkscape"
   width="128"
   height="128"
   viewBox="0 0 33.866666 33.866668"
   version="1.1"
   id="svg8"
   inkscape:version="0.92.4 (5da689c313, 2019-01-14)"
   sodipodi:docname="19. Atom medical molecule, science, chemistry, physics, particle.svg">
  <defs
     id="defs2">
    <pattern
       y="0"
       x="0"
       height="6"
       width="6"
       patternUnits="userSpaceOnUse"
       id="EMFhbasepattern" />
    <pattern
       y="0"
       x="0"
       height="6"
       width="6"
       patternUnits="userSpaceOnUse"
       id="EMFhbasepattern-5" />
    <pattern
       y="0"
       x="0"
       height="6"
       width="6"
       patternUnits="userSpaceOnUse"
       id="EMFhbasepattern-2" />
    <pattern
       y="0"
       x="0"
       height="6"
       width="6"
       patternUnits="userSpaceOnUse"
       id="EMFhbasepattern-52" />
    <pattern
       y="0"
       x="0"
       height="6"
       width="6"
       patternUnits="userSpaceOnUse"
       id="EMFhbasepattern-9" />
    <pattern
       y="0"
       x="0"
       height="6"
       width="6"
       patternUnits="userSpaceOnUse"
       id="EMFhbasepattern-1" />
  </defs>
  <sodipodi:namedview
     id="base"
     pagecolor="#ffffff"
     bordercolor="#666666"
     borderopacity="1.0"
     inkscape:pageopacity="0.0"
     inkscape:pageshadow="2"
     inkscape:zoom="1.4940073"
     inkscape:cx="-92.023565"
     inkscape:cy="75.364523"
     inkscape:document-units="px"
     inkscape:current-layer="layer1"
     showgrid="false"
     units="px"
     inkscape:window-width="1366"
     inkscape:window-height="706"
     inkscape:window-x="-8"
     inkscape:window-y="-8"
     inkscape:window-maximized="1"
     showguides="true">
    <inkscape:grid
       type="xygrid"
       id="grid815"
       empspacing="1"
       originx="0"
       originy="0"
       spacingx="0"
       spacingy="0"
       snapvisiblegridlinesonly="true"
       visible="true"
       enabled="true"
       dotted="false" />
  </sodipodi:namedview>
  <metadata
     id="metadata5">
   
  </metadata>
  <style>
  @media (prefers-color-scheme: dark) {
     .obj {
        style: "color:#000000;font-style:normal;font-variant:normal;font-weight:normal;font-stretch:normal;font-size:medium;line-height:normal;font-family:sans-serif;font-variant-ligatures:normal;font-variant-position:normal;font-variant-caps:normal;font-variant-numeric:normal;font-variant-alternates:normal;font-feature-settings:normal;text-indent:0;text-align:start;text-decoration:none;text-decoration-line:none;text-decoration-style:solid;text-decoration-color:#000000;letter-spacing:normal;word-spacing:normal;text-transform:none;writing-mode:lr-tb;direction:ltr;text-orientation:mixed;dominant-baseline:auto;baseline-shift:baseline;text-anchor:start;white-space:normal;shape-padding:0;clip-rule:nonzero;display:inline;overflow:visible;visibility:visible;opacity:1;isolation:auto;mix-blend-mode:normal;color-interpolation:sRGB;color-interpolation-filters:linearRGB;solid-color:#000000;solid-opacity:1;vector-effect:none;fill:#00bebe;fill-opacity:1;fill-rule:nonzero;stroke:none;stroke-width:0.52916676;stroke-linecap:round;stroke-linejoin:miter;stroke-miterlimit:4;stroke-dasharray:none;stroke-dashoffset:0;stroke-opacity:1;paint-order:normal;color-rendering:auto;image-rendering:auto;shape-rendering:auto;text-rendering:auto;enable-background:accumulate"
     }
}
  </style>
  <g
     inkscape:label="Layer 1"
     inkscape:groupmode="layer"
     id="layer1"
     transform="translate(0,-263.13332)">
     <style>
    path {
      fill: #000000;
    }
    @media (prefers-color-scheme: dark) {
      path {
        fill: #00bebe;
        
      }
    }
  </style>
    <path class="obj"
       style="fill:#00bebe;color:#000000;font-style:normal;font-variant:normal;font-weight:normal;font-stretch:normal;font-size:medium;line-height:normal;font-family:sans-serif;font-variant-ligatures:normal;font-variant-position:normal;font-variant-caps:normal;font-variant-numeric:normal;font-variant-alternates:normal;font-feature-settings:normal;text-indent:0;text-align:start;text-decoration:none;text-decoration-line:none;text-decoration-style:solid;text-decoration-color:#000000;letter-spacing:normal;word-spacing:normal;text-transform:none;writing-mode:lr-tb;direction:ltr;text-orientation:mixed;dominant-baseline:auto;baseline-shift:baseline;text-anchor:start;white-space:normal;shape-padding:0;clip-rule:nonzero;display:inline;overflow:visible;visibility:visible;opacity:1;isolation:auto;mix-blend-mode:normal;color-interpolation:sRGB;color-interpolation-filters:linearRGB;solid-color:#000000;solid-opacity:1;vector-effect:none;fill-opacity:1;fill-rule:nonzero;stroke:none;stroke-width:0.52916676;stroke-linecap:round;stroke-linejoin:miter;stroke-miterlimit:4;stroke-dasharray:none;stroke-dashoffset:0;stroke-opacity:1;paint-order:normal;color-rendering:auto;image-rendering:auto;shape-rendering:auto;text-rendering:auto;enable-background:accumulate"
       d="m 19.57832,263.66282 c -0.710726,-0.0131 -1.429328,0.36524 -2.115049,1.01128 -0.783683,0.73835 -1.551695,1.84258 -2.279375,3.23537 -0.153671,0.29413 -0.305076,0.60364 -0.454738,0.92291 -0.259239,-0.23907 -0.516533,-0.46884 -0.769954,-0.68314 -1.199921,-1.01468 -2.326425,-1.74764 -3.330957,-2.13521 -1.0045376,-0.38757 -1.9158092,-0.43318 -2.6095762,0.007 -0.6937672,0.44032 -1.0397624,1.28398 -1.1166923,2.35794 -0.076935,1.07395 0.1068168,2.40544 0.5141643,3.92316 0.148136,0.55194 0.3270159,1.12939 0.5338005,1.72646 -0.6310508,0.034 -1.2332522,0.0868 -1.8003497,0.15813 -1.5591221,0.19619 -2.8617267,0.53071 -3.8270345,1.00766 -0.9653077,0.47695 -1.61754115,1.11619 -1.76314367,1.9249 -0.14559779,0.80869 0.24296606,1.63521 0.98130417,2.4189 0.7383381,0.78369 1.8425778,1.54963 3.2353583,2.27732 0.5065178,0.26464 1.0524419,0.52413 1.6318898,0.77616 -0.4020277,0.48744 -0.770899,0.96581 -1.1022233,1.4314 -0.9111155,1.28032 -1.5479989,2.46402 -1.8504739,3.49736 -0.3024829,1.03336 -0.2739035,1.94667 0.2227184,2.60132 0.4966216,0.65465 1.3696508,0.92962 2.4462841,0.91672 1.0766254,-0.0129 2.3878419,-0.30675 3.8663074,-0.8392 0.3118246,-0.1123 0.6327096,-0.23808 0.9585666,-0.37154 0.02891,0.35154 0.06242,0.69482 0.103867,1.02419 0.1962,1.55913 0.531226,2.85968 1.008175,3.82499 0.476947,0.96531 1.116187,1.61806 1.924886,1.76367 0.808699,0.14561 1.635731,-0.24297 2.419413,-0.98131 0.783681,-0.73834 1.549112,-1.84103 2.276791,-3.23382 0.153909,-0.29459 0.30533,-0.60468 0.455255,-0.92447 0.259423,0.23925 0.516874,0.46922 0.770471,0.68366 1.199915,1.01467 2.326419,1.74764 3.330957,2.13521 1.004532,0.38756 1.915805,0.43316 2.609576,-0.007 0.693768,-0.44032 1.040274,-1.28396 1.11721,-2.35792 0.07693,-1.07396 -0.107338,-2.40547 -0.514682,-3.92317 -0.148224,-0.55226 -0.327376,-1.12952 -0.534317,-1.72698 0.63183,-0.0341 1.234177,-0.0867 1.801899,-0.15812 1.559124,-0.19621 2.859658,-0.52917 3.824968,-1.00612 0.965312,-0.47695 1.618055,-1.11621 1.763661,-1.92489 0.145604,-0.80871 -0.243485,-1.63523 -0.981821,-2.41891 -0.738336,-0.78369 -1.839992,-1.55118 -3.232775,-2.27886 -0.506814,-0.2648 -1.053077,-0.5241 -1.632922,-0.77616 0.402273,-0.48755 0.771802,-0.96564 1.103256,-1.4314 0.911114,-1.28033 1.546441,-2.46299 1.848924,-3.49634 0.302475,-1.03335 0.272353,-1.9477 -0.22427,-2.60235 -0.49662,-0.65465 -1.368109,-0.92858 -2.444733,-0.91568 -1.076634,0.0129 -2.386291,0.30572 -3.864757,0.83816 -0.31247,0.11253 -0.634052,0.23832 -0.960634,0.37206 -0.02894,-0.35119 -0.06298,-0.69413 -0.104384,-1.02317 -0.196197,-1.55914 -0.529162,-2.86121 -1.006108,-3.82653 -0.476948,-0.96531 -1.116187,-1.61807 -1.924885,-1.76367 -0.101088,-0.0182 -0.202316,-0.0281 -0.303848,-0.03 z m -0.0124,0.52915 c 0.07542,10e-4 0.149733,0.009 0.222719,0.0217 0.583884,0.10512 1.107925,0.59419 1.544042,1.47687 0.436116,0.88268 0.76509,2.13752 0.956501,3.65859 0.04722,0.37525 0.0857,0.76722 0.116268,1.17355 -1.301082,0.56412 -2.696295,1.28364 -4.140701,2.14503 -1.052643,-1.31018 -2.107919,-2.47094 -3.129941,-3.45293 0.170547,-0.37059 0.343492,-0.72481 0.518814,-1.06037 0.709915,-1.35879 1.454265,-2.42072 2.170858,-3.09585 0.627018,-0.59075 1.213492,-0.87515 1.74144,-0.86659 z m -10.3520104,2.04478 c 0.3565705,0.006 0.7654226,0.0956 1.2246924,0.27284 0.918539,0.35439 2.009443,1.05333 3.180066,2.04323 0.28879,0.24421 0.582444,0.50659 0.880022,0.78495 -0.62115,1.39877 -1.198998,3.00646 -1.706302,4.76908 -1.525347,-0.11621 -2.9670418,-0.14892 -4.2900404,-0.1018 -0.225675,-0.63954 -0.4193986,-1.25498 -0.5761738,-1.83911 -0.3974,-1.48066 -0.5659056,-2.76545 -0.4955612,-3.74747 0.070345,-0.98202 0.3708583,-1.63281 0.8717536,-1.95073 0.2504504,-0.15897 0.5549726,-0.2368 0.9115434,-0.23099 z m 18.5357444,3.38833 c 0.984465,-0.0118 1.657789,0.23374 2.016349,0.70639 0.358563,0.47267 0.41456,1.18827 0.137973,2.13316 -0.276578,0.94488 -0.884087,2.08913 -1.772961,3.33819 -0.350774,0.49292 -0.746641,1.00246 -1.181287,1.52339 -1.223213,-0.50542 -2.585782,-0.97743 -4.055437,-1.4004 0.138899,-1.8285 0.156938,-3.53628 0.06253,-5.06363 0.376727,-0.15738 0.744197,-0.30104 1.100673,-0.42942 1.442373,-0.51944 2.70771,-0.79588 3.692164,-0.80768 z m -12.843768,0.10283 c 0.94387,0.92001 1.920532,2.00799 2.896888,3.21884 -0.736553,0.4513 -1.483971,0.93881 -2.236484,1.45878 -0.758642,-0.10186 -1.504863,-0.18712 -2.232351,-0.25113 0.473146,-1.62785 1.00405,-3.12285 1.571947,-4.42649 z m 7.535734,1.35647 c 0.07754,1.41971 0.0535,3.00628 -0.0708,4.69674 -0.704988,-0.19398 -1.434738,-0.3743 -2.182226,-0.54362 -0.523863,-0.7497 -1.054593,-1.4668 -1.587449,-2.14657 1.338297,-0.79448 2.634274,-1.47347 3.84047,-2.00655 z m -4.301409,2.2799 c 0.425843,0.54149 0.849835,1.11011 1.271199,1.69804 -0.500128,-0.10516 -1.007309,-0.20491 -1.522339,-0.29765 -0.515753,-0.0929 -1.026576,-0.17673 -1.532674,-0.25268 0.600121,-0.40404 1.19567,-0.78882 1.783814,-1.14771 z m -8.7826467,1.15081 c 1.0334007,-0.01 2.1393407,0.0316 3.2901337,0.11627 -0.215616,0.78365 -0.416605,1.59612 -0.601495,2.43182 -0.562799,0.463 -1.097482,0.92895 -1.616904,1.39523 -0.6924825,-1.3685 -1.2751351,-2.6914 -1.7378227,-3.92989 0.2187617,-0.007 0.4407474,-0.0113 0.666088,-0.0134 z m -1.2205584,0.0356 c 0.4933367,1.34464 1.1263266,2.78314 1.8850961,4.27146 -1.2308105,1.13075 -2.3264694,2.25838 -3.2580951,3.34699 -0.623358,-0.26682 -1.2070304,-0.5411 -1.7429906,-0.82112 -1.3587813,-0.70991 -2.4201891,-1.45634 -3.0953195,-2.17293 -0.6751295,-0.7166 -0.95052245,-1.37822 -0.8453995,-1.9621 0.1051267,-0.5839 0.5941971,-1.10948 1.4768654,-1.5456 0.8826691,-0.43612 2.1375119,-0.76354 3.6585747,-0.95496 0.6002757,-0.0755 1.2436091,-0.12909 1.9212685,-0.16174 z m 5.0481091,0.12144 c 0.568999,0.0487 1.150309,0.11129 1.739891,0.18345 -0.415482,0.29649 -0.831565,0.60135 -1.247947,0.91723 -0.327257,0.24826 -0.647036,0.49873 -0.962701,0.7498 0.148764,-0.63162 0.304303,-1.25127 0.470757,-1.85048 z m 2.520697,0.28576 c 0.687726,0.0951 1.382235,0.20033 2.089211,0.32762 0.706205,0.12715 1.393084,0.27061 2.070092,0.42116 0.394862,0.56959 0.786706,1.15102 1.170951,1.75643 0.341617,0.53824 0.665193,1.07459 0.977687,1.60864 -0.08753,0.61199 -0.18427,1.23035 -0.29713,1.8572 -0.11293,0.62723 -0.238482,1.24036 -0.369992,1.8448 -0.478469,0.39101 -0.967613,0.78051 -1.474798,1.16527 -0.571747,0.43373 -1.142738,0.8418 -1.711986,1.23814 -0.68688,-0.095 -1.380551,-0.19999 -2.086628,-0.32711 -0.705867,-0.12709 -1.392875,-0.27018 -2.069575,-0.42063 -0.395349,-0.57025 -0.787793,-1.15236 -1.172501,-1.7585 -0.341396,-0.5379 -0.664342,-1.0739 -0.976653,-1.60761 0.08753,-0.61196 0.184273,-1.22987 0.29713,-1.85669 0.113057,-0.62793 0.23883,-1.24177 0.370508,-1.84686 0.478457,-0.39101 0.967626,-0.78053 1.474799,-1.16528 0.570795,-0.433 1.140574,-0.84084 1.708885,-1.23658 z m 4.926674,0.92498 c 0.578713,0.13823 1.146374,0.28251 1.697516,0.43563 -0.05309,0.62087 -0.123544,1.25699 -0.204632,1.90215 -0.208863,-0.34643 -0.421539,-0.69339 -0.642318,-1.04125 -0.280331,-0.44169 -0.56431,-0.87335 -0.850566,-1.29653 z m 2.214781,0.58445 c 1.349196,0.39216 2.610075,0.82333 3.742287,1.28361 -0.865646,0.99973 -1.872807,2.03679 -2.999204,3.07828 -0.323224,-0.61635 -0.660966,-1.23764 -1.025744,-1.86598 0.118741,-0.85117 0.211308,-1.68308 0.282661,-2.49591 z m -10.984509,1.4438 c -0.08081,0.3965 -0.158992,0.79634 -0.23202,1.20196 -0.07291,0.40496 -0.138542,0.8059 -0.201015,1.20506 -0.260335,-0.46278 -0.508652,-0.92148 -0.745667,-1.37662 0.380784,-0.34395 0.773386,-0.68744 1.178702,-1.0304 z m 15.239928,0.0548 c 0.62372,0.26695 1.208303,0.54146 1.744541,0.82163 1.35878,0.70992 2.418641,1.45376 3.09377,2.17035 0.675126,0.7166 0.950009,1.38028 0.844882,1.96417 -0.105131,0.58388 -0.593679,1.10741 -1.476349,1.54353 -0.882672,0.43612 -2.135963,0.76561 -3.657025,0.95702 -0.600424,0.0756 -1.243938,0.1291 -1.921785,0.16175 -0.493502,-1.34523 -1.126948,-2.7845 -1.88613,-4.27353 1.230542,-1.12997 2.326497,-2.25696 3.258096,-3.34492 z m -10.193369,1.04332 c -0.490797,0.0125 -0.926812,0.37007 -1.01696,0.87072 -0.103023,0.57217 0.282521,1.12633 0.854702,1.22935 0.57218,0.10301 1.124259,-0.28253 1.227276,-0.85471 0.103017,-0.57217 -0.279942,-1.12582 -0.852117,-1.22883 -0.07152,-0.0129 -0.142787,-0.0183 -0.212901,-0.0165 z m -6.631942,0.29609 c 0.324157,0.6181 0.662384,1.24151 1.028329,1.87167 -0.118346,0.84851 -0.213416,1.68034 -0.284728,2.49074 -1.349614,-0.39228 -2.610834,-0.82318 -3.7433218,-1.28362 0.8656925,-0.99992 1.8731377,-2.03706 2.9997208,-3.07879 z m 6.643311,0.23254 c 0.03535,-7.2e-4 0.07114,0.002 0.107483,0.009 0.290739,0.0523 0.479693,0.32369 0.427351,0.61442 -0.05234,0.29071 -0.324189,0.4797 -0.61493,0.42735 -0.290742,-0.0523 -0.479697,-0.32421 -0.427351,-0.61493 0.0458,-0.25437 0.259972,-0.43059 0.507447,-0.43562 z m 5.517833,0.27956 c 0.260139,0.46246 0.508303,0.92075 0.745151,1.37559 -0.380512,0.34369 -0.773181,0.68668 -1.178185,1.02937 0.08071,-0.39592 0.159099,-0.79489 0.232019,-1.1999 0.0729,-0.40487 0.138583,-0.80599 0.201015,-1.20506 z m 0.998874,1.8572 c 0.693024,1.36949 1.276469,2.6932 1.739373,3.93247 -1.22214,0.0365 -2.554817,2.7e-4 -3.956738,-0.10283 0.217299,-0.78909 0.421642,-1.60343 0.607695,-2.44526 0.558574,-0.45967 1.093836,-0.92154 1.60967,-1.38438 z m -11.694521,0.24081 c 0.20849,0.34578 0.420925,0.69199 0.641284,1.03918 0.28067,0.44223 0.564992,0.87441 0.851601,1.29807 -0.578759,-0.13822 -1.146333,-0.28301 -1.697517,-0.43612 0.05307,-0.62051 0.123605,-1.25637 0.204632,-1.90113 z m -4.8243576,0.89191 c 1.2231076,0.50568 2.5853868,0.97812 4.0549206,1.40142 -0.139328,1.82842 -0.158229,3.53632 -0.06408,5.06364 -0.375966,0.15702 -0.742815,0.30026 -1.0986057,0.42838 -1.4423738,0.51945 -2.708734,0.79692 -3.6931968,0.80872 -0.9844631,0.0117 -1.6593389,-0.23477 -2.0179004,-0.70743 -0.3585614,-0.47266 -0.4130083,-1.18723 -0.1364217,-2.13211 0.2765872,-0.94488 0.88512,-2.09017 1.7739956,-3.33924 0.3507626,-0.49291 0.7466521,-1.00247 1.1812854,-1.52338 z m 14.2364036,0.79993 c -0.149125,0.63345 -0.304874,1.25477 -0.471791,1.85565 -0.570627,-0.0488 -1.153737,-0.11103 -1.745058,-0.18344 0.416844,-0.29748 0.8343,-0.60341 1.25208,-0.92034 0.328044,-0.24886 0.648357,-0.50022 0.964769,-0.75187 z m -9.657501,0.74618 c 0.708176,0.19503 1.435301,0.3808 2.18636,0.55086 0.522139,0.74694 1.051228,1.46136 1.582282,2.13883 -1.338084,0.7943 -2.633431,1.47305 -3.839436,2.00602 -0.07743,-1.41947 -0.05351,-3.00568 0.07079,-4.69571 z m 2.959932,0.71984 c 0.49996,0.10518 1.006962,0.20495 1.521822,0.29764 0.51538,0.0928 1.025892,0.1758 1.531641,0.25167 -0.599943,0.40387 -1.195847,0.78841 -1.783814,1.14717 -0.425542,-0.54108 -0.848578,-1.10901 -1.269649,-1.69648 z m 3.826001,0.65937 c 0.766578,0.10319 1.51611,0.18354 2.250953,0.24804 -0.473093,1.62766 -1.004121,3.12294 -1.571946,4.42648 -0.944385,-0.92041 -1.921526,-2.0093 -2.898439,-3.2209 0.730585,-0.44783 1.473042,-0.93822 2.219432,-1.45362 z m 2.791989,0.29506 c 1.525197,0.11588 2.967131,0.14862 4.29004,0.10129 0.225671,0.63953 0.418884,1.25499 0.575657,1.83911 0.397401,1.48066 0.565904,2.76546 0.495562,3.74747 -0.07035,0.98203 -0.370853,1.63281 -0.871754,1.95074 -0.500906,0.3179 -1.217696,0.31252 -2.136236,-0.0419 -0.91854,-0.35439 -2.009443,-1.05383 -3.180066,-2.04375 -0.288965,-0.24435 -0.582775,-0.50639 -0.880538,-0.78495 0.621208,-1.39856 1.199756,-3.00585 1.707335,-4.76805 z m -5.47391,1.43813 c 1.053169,1.31088 2.109492,2.4721 3.132008,3.45446 -0.170611,0.37074 -0.343424,0.72468 -0.518815,1.06038 -0.709914,1.35877 -1.455816,2.41865 -2.172408,3.09378 -0.716593,0.67513 -1.378208,0.95053 -1.962091,0.8454 -0.583885,-0.10512 -1.109994,-0.59419 -1.54611,-1.47687 -0.436117,-0.88267 -0.76354,-2.13597 -0.95495,-3.65704 -0.04728,-0.37574 -0.0862,-0.76767 -0.116785,-1.17457 1.300705,-0.56415 2.695245,-1.2841 4.139151,-2.14554 z"
       id="path1316"
       inkscape:connector-curvature="0" />
  </g>
</svg>
