<?xml version="1.0" standalone="no"?>
<!DOCTYPE svg PUBLIC "-//W3C//DTD SVG 20010904//EN"
 "http://www.w3.org/TR/2001/REC-SVG-20010904/DTD/svg10.dtd">
<svg version="1.0" xmlns="http://www.w3.org/2000/svg"
 width="706.000000pt" height="1280.000000pt" viewBox="0 0 706.000000 1280.000000"
 preserveAspectRatio="xMidYMid meet">
<metadata>
Created by potrace 1.15, written by Peter Selinger 2001-2017
</metadata>
<g transform="translate(0.000000,1280.000000) scale(0.100000,-0.100000)"
fill="#00bebe" stroke="none">
<path d="M1993 12785 c-62 -27 -63 -32 -63 -470 0 -428 1 -433 54 -469 21 -13
56 -16 224 -16 l200 0 6 -422 c3 -233 7 -1300 8 -2371 l3 -1949 -130 -49
c-485 -185 -953 -502 -1311 -889 -544 -586 -873 -1316 -965 -2140 -17 -149
-17 -602 -1 -745 91 -790 379 -1464 871 -2040 505 -591 1199 -1000 1961 -1155
255 -52 388 -64 680 -64 362 0 607 33 932 125 1227 347 2176 1343 2488 2613
275 1118 17 2307 -693 3196 -393 493 -898 866 -1484 1096 l-123 48 0 2373 0
2373 200 0 c170 0 205 3 226 16 53 36 54 41 54 469 0 440 0 444 -65 471 -51
21 -3024 20 -3072 -1z m2179 -3517 l3 -2563 70 -7 c145 -14 503 -154 750 -293
238 -134 421 -272 629 -475 505 -492 813 -1101 928 -1833 19 -124 22 -182 23
-457 0 -254 -4 -338 -18 -435 -113 -751 -419 -1363 -933 -1866 -460 -449
-1029 -734 -1657 -830 -172 -27 -526 -36 -704 -20 -860 81 -1626 517 -2159
1228 -303 405 -511 913 -596 1453 -20 128 -22 182 -22 465 0 347 9 440 69 710
234 1046 961 1893 1940 2260 164 62 256 87 335 94 l75 6 0 525 c0 289 -4 1442
-8 2563 l-8 2037 640 0 641 0 2 -2562z"/>
<path d="M3448 6577 c-26 -8 -55 -20 -65 -27 -86 -65 -133 -143 -133 -221 0
-218 259 -342 455 -218 43 28 110 114 100 130 -3 4 -1 10 5 14 17 11 11 126
-9 171 -56 123 -213 190 -353 151z m181 -118 c53 -30 74 -65 79 -130 4 -54 2
-59 -33 -97 -44 -50 -88 -66 -166 -60 -64 5 -83 17 -130 82 -35 47 -36 66 -8
124 45 92 170 131 258 81z"/>
<path d="M2581 5365 c-124 -35 -228 -121 -284 -234 -29 -60 -32 -74 -32 -161
0 -83 4 -103 28 -154 76 -163 225 -256 411 -256 141 0 251 45 338 138 48 52
93 127 83 141 -3 5 0 11 5 13 17 5 28 108 20 170 -19 135 -102 243 -236 309
-78 39 -90 42 -181 45 -67 3 -115 -1 -152 -11z m275 -155 c50 -25 114 -91 145
-152 44 -84 20 -182 -64 -267 -72 -73 -105 -86 -232 -86 -102 0 -113 2 -156
27 -84 50 -159 161 -159 238 1 102 105 225 218 257 65 18 192 9 248 -17z"/>
<path d="M3865 4415 c-270 -59 -455 -273 -455 -525 0 -228 157 -430 394 -506
102 -33 246 -37 346 -10 151 41 292 149 359 275 33 62 33 65 15 79 -18 14 -18
14 2 8 19 -6 23 -1 33 38 16 63 14 181 -4 251 -72 274 -392 456 -690 390z
m210 -160 c123 -17 271 -134 314 -250 63 -167 -25 -353 -208 -443 -75 -36 -78
-37 -191 -37 -145 1 -203 21 -290 102 -211 195 -151 497 120 603 53 21 159 40
190 34 8 -1 38 -5 65 -9z"/>
<path d="M1930 3504 c-19 -2 -80 -9 -135 -15 -292 -31 -532 -116 -686 -243
-79 -64 -128 -130 -173 -228 -45 -97 -59 -167 -54 -264 4 -87 20 -129 178
-444 167 -336 329 -552 615 -819 423 -394 957 -645 1526 -716 145 -18 461 -21
599 -5 649 72 1210 342 1673 805 223 223 402 474 542 760 130 267 165 375 165
515 0 280 -171 502 -455 590 -147 45 -384 61 -582 39 -203 -22 -360 -87 -603
-249 -260 -174 -368 -213 -575 -213 -228 0 -347 33 -748 207 -369 160 -547
221 -772 263 -77 14 -438 26 -515 17z"/>
</g>
</svg>
